<svg xmlns="http://www.w3.org/2000/svg" width="44" height="22" viewBox="-22 -18 44 22">
<ellipse cx="0" cy="-1" rx="19" ry="5" fill="#8a6a3a" stroke="#3b2b1d" stroke-width="1.4"/>
<g fill="none" stroke="#3b2b1d" stroke-width="2.6" stroke-linecap="round"><path d="M-14 -2 l-3 -7 M-8 -2 l1 -8 M3 -2 l-1 -8 M10 -2 l4 -7 M16 -2 l1 -6"/></g>
<g fill="none" stroke="#d9a441" stroke-width="1.2" stroke-linecap="round"><path d="M-14 -2 l-3 -7 M-8 -2 l1 -8 M3 -2 l-1 -8 M10 -2 l4 -7 M16 -2 l1 -6"/></g>
<g transform="translate(-12 -2) scale(0.9)"><path d="M-1 0 L-5 -9 C-3 -12 3 -12 5 -9 L1 0 Z" fill="#b8d8ea" stroke="#3b2b1d" stroke-width="1.2" stroke-linejoin="round"/><path d="M-2 -3 L-3 -9 M2 -3 L3 -9" stroke="#7fb8d8" stroke-width="1"/><path d="M-1 -9 l-1 -3 M1 -9 l1 -3 M0 -9 l0 -4" stroke="#b5482e" stroke-width="1.6" stroke-linecap="round"/></g><g transform="translate(-2 -1) scale(1.1)"><path d="M-1 0 L-5 -9 C-3 -12 3 -12 5 -9 L1 0 Z" fill="#b8d8ea" stroke="#3b2b1d" stroke-width="1.2" stroke-linejoin="round"/><path d="M-2 -3 L-3 -9 M2 -3 L3 -9" stroke="#7fb8d8" stroke-width="1"/><path d="M-1 -9 l-1 -3 M1 -9 l1 -3 M0 -9 l0 -4" stroke="#b5482e" stroke-width="1.6" stroke-linecap="round"/></g><g transform="translate(8 -2) scale(1)"><path d="M-1 0 L-5 -9 C-3 -12 3 -12 5 -9 L1 0 Z" fill="#b8d8ea" stroke="#3b2b1d" stroke-width="1.2" stroke-linejoin="round"/><path d="M-2 -3 L-3 -9 M2 -3 L3 -9" stroke="#7fb8d8" stroke-width="1"/><path d="M-1 -9 l-1 -3 M1 -9 l1 -3 M0 -9 l0 -4" stroke="#b5482e" stroke-width="1.6" stroke-linecap="round"/></g><g transform="translate(15 -1) scale(0.8)"><path d="M-1 0 L-5 -9 C-3 -12 3 -12 5 -9 L1 0 Z" fill="#b8d8ea" stroke="#3b2b1d" stroke-width="1.2" stroke-linejoin="round"/><path d="M-2 -3 L-3 -9 M2 -3 L3 -9" stroke="#7fb8d8" stroke-width="1"/><path d="M-1 -9 l-1 -3 M1 -9 l1 -3 M0 -9 l0 -4" stroke="#b5482e" stroke-width="1.6" stroke-linecap="round"/></g>
</svg>
