<svg xmlns="http://www.w3.org/2000/svg" width="44" height="30" viewBox="0 0 44 30"><rect x="0.0" y="0.0" width="44.0" height="30.0" fill="#cbb994" /><rect x="0.0" y="0.0" width="44.0" height="9.0" fill="#efe4cb" /><rect x="0.0" y="0.0" width="44.0" height="1.5" fill="#fffaf0" /><rect x="22.0" y="0.0" width="1.2" height="9.0" fill="#cbb994" /><rect x="0.0" y="9.0" width="44.0" height="2.0" fill="#fffaf0" /><rect x="0.0" y="11.0" width="44.0" height="2.5" fill="#cbb994" /><rect x="0.0" y="13.5" width="44.0" height="1.5" fill="#8f3a24" /><rect x="0.0" y="15.0" width="44.0" height="10.5" fill="#b5482e" /><rect x="0.0" y="25.5" width="44.0" height="1.5" fill="#8f3a24" /><path d="M11 20 m-3.6 0 a3.6 3.6 0 1 1 3.6 3.6 a2.2 2.2 0 1 1 -2.2 -2.2 a1.1 1.1 0 1 1 1.1 1.1" fill="none" stroke="#f4ecd8" stroke-width="1.3"/><path d="M33 20 m-3.6 0 a3.6 3.6 0 1 1 3.6 3.6 a2.2 2.2 0 1 1 -2.2 -2.2 a1.1 1.1 0 1 1 1.1 1.1" fill="none" stroke="#f4ecd8" stroke-width="1.3"/></svg>
