<svg xmlns="http://www.w3.org/2000/svg" width="66" height="36" viewBox="0 0 66 36"><rect x="0.0" y="0.0" width="66.0" height="36.0" fill="#8f3a24" /><rect x="1.0" y="1.0" width="64.0" height="34.0" fill="#bd5739" /><rect x="1.0" y="1.0" width="64.0" height="1.6" fill="#cc7c65" /><rect x="1.0" y="1.0" width="1.6" height="34.0" fill="#c56b51" /><rect x="1.0" y="33.0" width="64.0" height="2.0" fill="#8f442c" /><rect x="63.4" y="1.0" width="1.6" height="34.0" fill="#a04b31" /><circle cx="15.8" cy="16.9" r="0.9" fill="#c77057"/><circle cx="9.6" cy="29.8" r="0.8" fill="#9c4930"/><circle cx="22.0" cy="9.2" r="0.8" fill="#9c4930"/><circle cx="40.7" cy="22.1" r="0.7" fill="#c77057"/><circle cx="52.3" cy="21.9" r="0.8" fill="#9c4930"/><circle cx="52.3" cy="15.5" r="0.7" fill="#9c4930"/><circle cx="51.0" cy="20.5" r="1.1" fill="#9c4930"/><circle cx="50.9" cy="8.0" r="1.1" fill="#9c4930"/><circle cx="58.4" cy="30.7" r="0.5" fill="#9c4930"/><circle cx="30.2" cy="12.0" r="0.9" fill="#c77057"/><circle cx="53.5" cy="31.6" r="1.1" fill="#9c4930"/><circle cx="52.1" cy="25.3" r="0.8" fill="#9c4930"/><path d="M41.5 3.0 l2 13.6 l-1.5 11.9" stroke="#843f29" stroke-width=".8" fill="none"/></svg>
