<svg xmlns="http://www.w3.org/2000/svg" width="66" height="36" viewBox="0 0 66 36"><rect x="0.0" y="0.0" width="66.0" height="36.0" fill="#cbb994" /><rect x="1.0" y="1.0" width="64.0" height="34.0" fill="#eee3ca" /><rect x="1.0" y="1.0" width="64.0" height="1.6" fill="#f2e9d6" /><rect x="1.0" y="1.0" width="1.6" height="34.0" fill="#f0e6d0" /><rect x="1.0" y="33.0" width="64.0" height="2.0" fill="#b3a895" /><rect x="63.4" y="1.0" width="1.6" height="34.0" fill="#c8bda8" /><circle cx="43.8" cy="20.0" r="0.8" fill="#f1e7d2"/><circle cx="62.0" cy="18.4" r="0.8" fill="#f1e7d2"/><circle cx="51.2" cy="26.2" r="0.5" fill="#c4b9a4"/><circle cx="11.5" cy="10.7" r="0.9" fill="#f1e7d2"/><circle cx="8.5" cy="27.1" r="0.9" fill="#f1e7d2"/><circle cx="7.9" cy="13.6" r="0.8" fill="#c4b9a4"/><circle cx="18.4" cy="29.9" r="0.7" fill="#c4b9a4"/><circle cx="51.1" cy="16.5" r="0.7" fill="#f1e7d2"/><circle cx="56.5" cy="12.4" r="0.9" fill="#f1e7d2"/><circle cx="43.0" cy="29.0" r="0.6" fill="#c4b9a4"/><circle cx="25.0" cy="29.4" r="1.1" fill="#c4b9a4"/><circle cx="47.2" cy="12.3" r="0.6" fill="#c4b9a4"/></svg>
