<svg xmlns="http://www.w3.org/2000/svg" width="66" height="36" viewBox="0 0 66 36"><rect x="0.0" y="0.0" width="66.0" height="36.0" fill="#c9a869" /><rect x="1.0" y="1.0" width="64.0" height="34.0" fill="#dabb7b" /><rect x="1.0" y="1.0" width="64.0" height="1.6" fill="#e2ca98" /><rect x="1.0" y="1.0" width="1.6" height="34.0" fill="#dec38b" /><rect x="1.0" y="33.0" width="64.0" height="2.0" fill="#a48c5c" /><rect x="63.4" y="1.0" width="1.6" height="34.0" fill="#b79d67" /><circle cx="49.8" cy="20.4" r="0.5" fill="#e0c58f"/><circle cx="61.7" cy="25.6" r="0.7" fill="#b49965"/><circle cx="54.0" cy="5.2" r="1.0" fill="#b49965"/><circle cx="29.6" cy="13.5" r="1.0" fill="#e0c58f"/><circle cx="54.9" cy="7.6" r="0.5" fill="#e0c58f"/><circle cx="9.5" cy="21.5" r="0.9" fill="#e0c58f"/><circle cx="5.7" cy="13.5" r="0.6" fill="#b49965"/><circle cx="55.2" cy="19.9" r="0.8" fill="#e0c58f"/><circle cx="42.1" cy="20.8" r="0.7" fill="#b49965"/><circle cx="28.5" cy="5.7" r="1.0" fill="#b49965"/><circle cx="47.9" cy="31.8" r="0.7" fill="#b49965"/><circle cx="45.1" cy="5.4" r="0.6" fill="#b49965"/></svg>
