<svg xmlns="http://www.w3.org/2000/svg" width="44" height="36" viewBox="0 0 44 36"><rect x="0.0" y="0.0" width="44.0" height="36.0" fill="#8a6a3c" /><rect x="1.5" y="1.5" width="41.0" height="33.0" fill="#a88452" /><rect x="3.0" y="3.0" width="38.0" height="30.0" fill="#e8cf8c" /><rect x="3.0" y="3.0" width="38.0" height="1.6" fill="#eddaa5" /><rect x="3.0" y="3.0" width="1.6" height="30.0" fill="#ebd59a" /><rect x="3.0" y="31.0" width="38.0" height="2.0" fill="#ae9a68" /><rect x="39.4" y="3.0" width="1.6" height="30.0" fill="#c3ad75" /><circle cx="22.7" cy="9.6" r="0.8" fill="#ebd69d"/><circle cx="8.6" cy="21.5" r="0.7" fill="#ebd69d"/><circle cx="27.6" cy="27.3" r="0.9" fill="#bfa972"/><circle cx="35.3" cy="20.5" r="0.6" fill="#bfa972"/><circle cx="12.0" cy="16.3" r="0.7" fill="#ebd69d"/><circle cx="22.8" cy="21.6" r="1.0" fill="#bfa972"/><rect x="8" y="7" width="28" height="22" rx="4" fill="#d9a441" stroke="#fff3c8" stroke-width="2"/><circle cx="22" cy="18" r="5.5" fill="#fff3c8" stroke="#fff3c8" stroke-width="1.8"/><circle cx="22" cy="18" r="1.8" fill="#d9a441"/><rect x="5" y="4" width="34" height="28" rx="6" fill="none" stroke="#fff3c8" stroke-width="1" opacity=".6"/></svg>
