<svg xmlns="http://www.w3.org/2000/svg" width="44" height="90" viewBox="0 0 44 90"><rect x="5.0" y="12.0" width="34.0" height="78.0" fill="#1e140d" /><rect x="7.0" y="14.0" width="30.0" height="76.0" fill="#2c1e14" /><rect x="5" y="12" width="34" height="78" fill="none" stroke="#3b2b1d" stroke-width="1.2"/><path d="M31.0 50.0 L37.0 50.0" stroke="#d9a441" stroke-width="2.2" stroke-linecap="round"/><path d="M30.3 53.4 L33.5 54.8" stroke="#d9a441" stroke-width="1.5" stroke-linecap="round"/><path d="M28.4 56.4 L32.6 60.6" stroke="#d9a441" stroke-width="2.2" stroke-linecap="round"/><path d="M25.4 58.3 L26.8 61.5" stroke="#d9a441" stroke-width="1.5" stroke-linecap="round"/><path d="M22.0 59.0 L22.0 65.0" stroke="#d9a441" stroke-width="2.2" stroke-linecap="round"/><path d="M18.6 58.3 L17.2 61.5" stroke="#d9a441" stroke-width="1.5" stroke-linecap="round"/><path d="M15.6 56.4 L11.4 60.6" stroke="#d9a441" stroke-width="2.2" stroke-linecap="round"/><path d="M13.7 53.4 L10.5 54.8" stroke="#d9a441" stroke-width="1.5" stroke-linecap="round"/><path d="M13.0 50.0 L7.0 50.0" stroke="#d9a441" stroke-width="2.2" stroke-linecap="round"/><path d="M13.7 46.6 L10.5 45.2" stroke="#d9a441" stroke-width="1.5" stroke-linecap="round"/><path d="M15.6 43.6 L11.4 39.4" stroke="#d9a441" stroke-width="2.2" stroke-linecap="round"/><path d="M18.6 41.7 L17.2 38.5" stroke="#d9a441" stroke-width="1.5" stroke-linecap="round"/><path d="M22.0 41.0 L22.0 35.0" stroke="#d9a441" stroke-width="2.2" stroke-linecap="round"/><path d="M25.4 41.7 L26.8 38.5" stroke="#d9a441" stroke-width="1.5" stroke-linecap="round"/><path d="M28.4 43.6 L32.6 39.4" stroke="#d9a441" stroke-width="2.2" stroke-linecap="round"/><path d="M30.3 46.6 L33.5 45.2" stroke="#d9a441" stroke-width="1.5" stroke-linecap="round"/><circle cx="22" cy="50" r="7.5" fill="#d9a441" stroke="#3b2b1d" stroke-width="1.2"/><circle cx="20" cy="48" r="2.8" fill="#f0c860"/><circle cx="22" cy="50" r="2.4" fill="#fff3c8"/></svg>
