<svg xmlns="http://www.w3.org/2000/svg" width="108" height="156" viewBox="-18 -51 36 52"><g stroke="#2a2230" stroke-width="1.1" stroke-linejoin="round" stroke-linecap="round"><path d="M-6.3 -39 Q-8 -30 -7 -24 L-3 -26 Z" fill="#3a2a22"></path><rect x="-4.6" y="-3" width="3.4" height="3" rx="1" fill="#2a2230"></rect><rect x="1.2" y="-3" width="3.4" height="3" rx="1" fill="#2a2230"></rect><path d="M-5.5 -31 Q0 -33 5.5 -31 L8.5 -2 L-8.5 -2 Z" fill="#1f6f9c"></path><path d="M-5 -30 L6 -18 L5 -15 L-5.5 -26 Z" fill="#f4ecd8"></path><rect x="-9.2" y="-30.5" width="3.6" height="13" rx="1.8" fill="#f0d2a8"></rect><path d="M6 -30 L9.5 -27 L6 -34.5" fill="none" stroke="#2a2230" stroke-width="4"></path><path d="M6 -30 L9.5 -27 L6 -34.5" fill="none" stroke="#f0d2a8" stroke-width="2"></path><circle cx="0" cy="-37.5" r="6.2" fill="#f0d2a8"></circle><path d="M-6.5 -36.5 Q-6.5 -44.5 0 -44.5 Q6.5 -44.5 6.5 -37.5 Q3 -40.5 0 -40.5 Q-4 -40.5 -6.5 -36.5 Z" fill="#3a2a22"></path><path d="M-5.6 -41 Q0 -43.5 5.6 -41" fill="none" stroke="#f4ecd8" stroke-width="1.1"></path><circle cx="6.3" cy="-34.8" r="2" fill="#f0d2a8"></circle></g><g fill="none" stroke="#9ec5dd" stroke-width="1.5" stroke-linecap="round"><path d="M9.5 -38 Q11 -35 9.5 -32"></path><path d="M12 -40 Q14.5 -35 12 -30"></path><path d="M14.5 -42 Q18 -35 14.5 -28"></path></g><g fill="#2a2230"><circle cx="-2.4" cy="-36.6" r="0.95"></circle><circle cx="2" cy="-36.6" r="0.95"></circle></g></svg>
